<mxfile host="app.diagrams.net" modified="2023-05-24T03:05:58.219Z" agent="Mozilla/5.0 (Windows NT 10.0; WOW64) AppleWebKit/537.36 (KHTML, like Gecko) Chrome/108.0.5359.95 Safari/537.36" version="21.3.3" etag="uKlPg5ipa8mUVhgKm89k" type="github">
  <diagram name="第 1 页" id="no8J1YpqbdQjoPtJA8Bf">
    <mxGraphModel>
      <root>
        <mxCell id="0" />
        <mxCell id="1" parent="0" />
      </root>
    </mxGraphModel>
  </diagram>
</mxfile>
